%TF.GenerationSoftware,KiCad,Pcbnew,8.0.5*%
%TF.CreationDate,2026-03-14T16:26:28-03:00*%
%TF.ProjectId,switch1x4_interface,73776974-6368-4317-9834-5f696e746572,rev?*%
%TF.SameCoordinates,Original*%
%TF.FileFunction,Copper,L1,Top*%
%TF.FilePolarity,Positive*%
%FSLAX46Y46*%
G04 Gerber Fmt 4.6, Leading zero omitted, Abs format (unit mm)*
G04 Created by KiCad (PCBNEW 8.0.5) date 2026-03-14 16:26:28*
%MOMM*%
%LPD*%
G01*
G04 APERTURE LIST*
G04 Aperture macros list*
%AMRoundRect*
0 Rectangle with rounded corners*
0 $1 Rounding radius*
0 $2 $3 $4 $5 $6 $7 $8 $9 X,Y pos of 4 corners*
0 Add a 4 corners polygon primitive as box body*
4,1,4,$2,$3,$4,$5,$6,$7,$8,$9,$2,$3,0*
0 Add four circle primitives for the rounded corners*
1,1,$1+$1,$2,$3*
1,1,$1+$1,$4,$5*
1,1,$1+$1,$6,$7*
1,1,$1+$1,$8,$9*
0 Add four rect primitives between the rounded corners*
20,1,$1+$1,$2,$3,$4,$5,0*
20,1,$1+$1,$4,$5,$6,$7,0*
20,1,$1+$1,$6,$7,$8,$9,0*
20,1,$1+$1,$8,$9,$2,$3,0*%
G04 Aperture macros list end*
%TA.AperFunction,SMDPad,CuDef*%
%ADD10RoundRect,0.250000X-0.350000X-0.750000X0.350000X-0.750000X0.350000X0.750000X-0.350000X0.750000X0*%
%TD*%
%TA.AperFunction,SMDPad,CuDef*%
%ADD11R,1.550000X2.000000*%
%TD*%
%TA.AperFunction,SMDPad,CuDef*%
%ADD12RoundRect,0.250000X0.350000X0.750000X-0.350000X0.750000X-0.350000X-0.750000X0.350000X-0.750000X0*%
%TD*%
%TA.AperFunction,ComponentPad*%
%ADD13RoundRect,0.258620X0.641380X1.241380X-0.641380X1.241380X-0.641380X-1.241380X0.641380X-1.241380X0*%
%TD*%
%TA.AperFunction,ComponentPad*%
%ADD14O,1.800000X3.000000*%
%TD*%
%TA.AperFunction,Conductor*%
%ADD15C,0.500000*%
%TD*%
G04 APERTURE END LIST*
D10*
%TO.P,D4,1,K*%
%TO.N,GND*%
X189997500Y-65685000D03*
%TO.P,D4,2,A*%
%TO.N,Net-(D4-A)*%
X192047500Y-65685000D03*
%TD*%
D11*
%TO.P,SW3,1,1*%
%TO.N,GND*%
X157020000Y-69000000D03*
X164980000Y-69000000D03*
%TO.P,SW3,2,2*%
%TO.N,Net-(J2-Pin_3)*%
X157020000Y-73500000D03*
X164980000Y-73500000D03*
%TD*%
D10*
%TO.P,R3,1*%
%TO.N,Net-(J3-Pin_3)*%
X160020000Y-61685000D03*
%TO.P,R3,2*%
%TO.N,Net-(D3-A)*%
X162020000Y-61685000D03*
%TD*%
%TO.P,R2,1*%
%TO.N,Net-(J3-Pin_2)*%
X130020000Y-61685000D03*
%TO.P,R2,2*%
%TO.N,Net-(D2-A)*%
X132020000Y-61685000D03*
%TD*%
D11*
%TO.P,SW4,1,1*%
%TO.N,GND*%
X187020000Y-69000000D03*
X194980000Y-69000000D03*
%TO.P,SW4,2,2*%
%TO.N,Net-(J2-Pin_4)*%
X187020000Y-73500000D03*
X194980000Y-73500000D03*
%TD*%
D10*
%TO.P,R1,1*%
%TO.N,Net-(J3-Pin_1)*%
X95020000Y-65685000D03*
%TO.P,R1,2*%
%TO.N,Net-(D1-A)*%
X97020000Y-65685000D03*
%TD*%
%TO.P,D2,1,K*%
%TO.N,GND*%
X129997500Y-65685000D03*
%TO.P,D2,2,A*%
%TO.N,Net-(D2-A)*%
X132047500Y-65685000D03*
%TD*%
%TO.P,R4,1*%
%TO.N,Net-(J3-Pin_4)*%
X190020000Y-59685000D03*
%TO.P,R4,2*%
%TO.N,Net-(D4-A)*%
X192020000Y-59685000D03*
%TD*%
D12*
%TO.P,D1,1,K*%
%TO.N,GND*%
X102047500Y-65685000D03*
%TO.P,D1,2,A*%
%TO.N,Net-(D1-A)*%
X99997500Y-65685000D03*
%TD*%
D11*
%TO.P,SW1,1,1*%
%TO.N,GND*%
X97020000Y-69000000D03*
X104980000Y-69000000D03*
%TO.P,SW1,2,2*%
%TO.N,Net-(J2-Pin_1)*%
X97020000Y-73500000D03*
X104980000Y-73500000D03*
%TD*%
D10*
%TO.P,D3,1,K*%
%TO.N,GND*%
X159997500Y-65685000D03*
%TO.P,D3,2,A*%
%TO.N,Net-(D3-A)*%
X162047500Y-65685000D03*
%TD*%
D11*
%TO.P,SW2,1,1*%
%TO.N,GND*%
X127020000Y-69000000D03*
X134980000Y-69000000D03*
%TO.P,SW2,2,2*%
%TO.N,Net-(J2-Pin_2)*%
X127020000Y-73500000D03*
X134980000Y-73500000D03*
%TD*%
D13*
%TO.P,J2,1,Pin_1*%
%TO.N,Net-(J2-Pin_1)*%
X91020000Y-71685000D03*
D14*
%TO.P,J2,2,Pin_2*%
%TO.N,Net-(J2-Pin_2)*%
X88480000Y-71685000D03*
%TO.P,J2,3,Pin_3*%
%TO.N,Net-(J2-Pin_3)*%
X85940000Y-71685000D03*
%TO.P,J2,4,Pin_4*%
%TO.N,Net-(J2-Pin_4)*%
X83400000Y-71685000D03*
%TD*%
D13*
%TO.P,J1,1,Pin_1*%
%TO.N,GND*%
X117020000Y-65685000D03*
D14*
%TO.P,J1,2*%
%TO.N,N/C*%
X114480000Y-65685000D03*
%TD*%
D13*
%TO.P,J3,1,Pin_1*%
%TO.N,Net-(J3-Pin_1)*%
X91020000Y-63685000D03*
D14*
%TO.P,J3,2,Pin_2*%
%TO.N,Net-(J3-Pin_2)*%
X88480000Y-63685000D03*
%TO.P,J3,3,Pin_3*%
%TO.N,Net-(J3-Pin_3)*%
X85940000Y-63685000D03*
%TO.P,J3,4,Pin_4*%
%TO.N,Net-(J3-Pin_4)*%
X83400000Y-63685000D03*
%TD*%
D15*
%TO.N,GND*%
X104980000Y-69000000D02*
X97020000Y-69000000D01*
X117020000Y-65685000D02*
X117020000Y-68020000D01*
X159000000Y-69000000D02*
X157020000Y-69000000D01*
X97020000Y-69000000D02*
X101000000Y-69000000D01*
X159997500Y-65685000D02*
X159997500Y-68002500D01*
X189997500Y-68002500D02*
X189000000Y-69000000D01*
X187020000Y-69000000D02*
X104980000Y-69000000D01*
X189997500Y-65685000D02*
X189997500Y-68002500D01*
X159997500Y-68002500D02*
X159000000Y-69000000D01*
X129997500Y-68002500D02*
X129000000Y-69000000D01*
X194980000Y-69000000D02*
X187020000Y-69000000D01*
X101000000Y-69000000D02*
X102047500Y-67952500D01*
X129997500Y-65685000D02*
X129997500Y-68002500D01*
X129000000Y-69000000D02*
X127020000Y-69000000D01*
X118000000Y-69000000D02*
X127020000Y-69000000D01*
X117020000Y-68020000D02*
X118000000Y-69000000D01*
X189000000Y-69000000D02*
X187020000Y-69000000D01*
X102047500Y-67952500D02*
X102047500Y-65685000D01*
%TO.N,Net-(D1-A)*%
X99997500Y-65685000D02*
X97020000Y-65685000D01*
%TO.N,Net-(D2-A)*%
X132020000Y-65657500D02*
X132047500Y-65685000D01*
X132020000Y-61685000D02*
X132020000Y-65657500D01*
%TO.N,Net-(D3-A)*%
X162020000Y-61685000D02*
X162020000Y-65657500D01*
X162020000Y-65657500D02*
X162047500Y-65685000D01*
%TO.N,Net-(D4-A)*%
X192020000Y-65657500D02*
X192047500Y-65685000D01*
X192020000Y-59685000D02*
X192020000Y-65657500D01*
%TO.N,Net-(J2-Pin_4)*%
X87535000Y-76750000D02*
X183770000Y-76750000D01*
X183770000Y-76750000D02*
X187020000Y-73500000D01*
X194980000Y-73500000D02*
X187020000Y-73500000D01*
X83400000Y-72615000D02*
X87535000Y-76750000D01*
X83400000Y-71685000D02*
X83400000Y-72615000D01*
%TO.N,Net-(J2-Pin_1)*%
X104980000Y-73500000D02*
X97020000Y-73500000D01*
X97020000Y-73500000D02*
X92835000Y-73500000D01*
X92835000Y-73500000D02*
X91020000Y-71685000D01*
%TO.N,Net-(J2-Pin_2)*%
X125470000Y-75050000D02*
X127020000Y-73500000D01*
X88480000Y-71685000D02*
X88480000Y-72485000D01*
X91045000Y-75050000D02*
X125470000Y-75050000D01*
X134980000Y-73500000D02*
X127020000Y-73500000D01*
X88480000Y-72485000D02*
X91045000Y-75050000D01*
%TO.N,Net-(J2-Pin_3)*%
X89355000Y-75900000D02*
X154620000Y-75900000D01*
X164980000Y-73500000D02*
X157020000Y-73500000D01*
X85940000Y-71685000D02*
X85940000Y-72485000D01*
X85940000Y-72485000D02*
X89355000Y-75900000D01*
X154620000Y-75900000D02*
X157020000Y-73500000D01*
%TO.N,Net-(J3-Pin_4)*%
X87985000Y-58300000D02*
X188635000Y-58300000D01*
X83400000Y-62885000D02*
X87985000Y-58300000D01*
X188635000Y-58300000D02*
X190020000Y-59685000D01*
X83400000Y-63685000D02*
X83400000Y-62885000D01*
%TO.N,Net-(J3-Pin_3)*%
X89525000Y-59300000D02*
X157635000Y-59300000D01*
X157635000Y-59300000D02*
X160020000Y-61685000D01*
X85940000Y-63685000D02*
X85940000Y-62885000D01*
X85940000Y-62885000D02*
X89525000Y-59300000D01*
%TO.N,Net-(J3-Pin_2)*%
X89730000Y-61635000D02*
X129970000Y-61635000D01*
X88480000Y-62885000D02*
X89730000Y-61635000D01*
X88480000Y-63685000D02*
X88480000Y-62885000D01*
X129970000Y-61635000D02*
X130020000Y-61685000D01*
%TO.N,Net-(J3-Pin_1)*%
X93020000Y-65685000D02*
X91020000Y-63685000D01*
X95020000Y-65685000D02*
X93020000Y-65685000D01*
%TD*%
M02*
